<mxfile host="app.diagrams.net" agent="Mozilla/5.0 (Windows NT 10.0; Win64; x64) AppleWebKit/537.36 (KHTML, like Gecko) Chrome/128.0.0.0 Safari/537.36" version="24.7.14">
  <diagram id="9Nvz_6NFu-FnVjTkihyT" name="Seite-1">
    <mxGraphModel dx="1850" dy="570" grid="1" gridSize="10" guides="1" tooltips="1" connect="1" arrows="1" fold="1" page="0" pageScale="1" pageWidth="827" pageHeight="1169" background="none" math="0" shadow="0">
      <root>
        <mxCell id="0" />
        <mxCell id="1" parent="0" />
        <mxCell id="node0" value="&lt;p style=&quot;margin:0px;margin-top:4px;text-align:center;&quot;&gt;&lt;b&gt;NdXml&lt;/b&gt;&lt;/p&gt;&lt;hr size=&quot;1&quot;/&gt;&lt;p style=&quot;margin:0 0 0 4px;line-height:1.6;&quot;&gt;- ref: Long&lt;/p&gt;" style="verticalAlign=top;align=left;overflow=fill;fontSize=14;fontFamily=Helvetica;html=1;rounded=0;shadow=0;comic=0;labelBackgroundColor=none;strokeWidth=1;" parent="1" vertex="1">
          <mxGeometry x="-210" y="40" width="102" height="68" as="geometry" />
        </mxCell>
        <mxCell id="node3" value="&lt;p style=&quot;margin:0px;margin-top:4px;text-align:center;&quot;&gt;&lt;b&gt;NodeXml&lt;/b&gt;&lt;/p&gt;&lt;hr size=&quot;1&quot;/&gt;&lt;p style=&quot;margin:0 0 0 4px;line-height:1.6;&quot;&gt;- id: Long&lt;br/&gt;- lat: Double&lt;br/&gt;- lon: Double&lt;/p&gt;" style="verticalAlign=top;align=left;overflow=fill;fontSize=14;fontFamily=Helvetica;html=1;rounded=0;shadow=0;comic=0;labelBackgroundColor=none;strokeWidth=1;" parent="1" vertex="1">
          <mxGeometry x="-200" y="260" width="121" height="120" as="geometry" />
        </mxCell>
        <mxCell id="node2" value="&lt;p style=&quot;margin:0px;margin-top:4px;text-align:center;&quot;&gt;&lt;b&gt;OsmXml&lt;/b&gt;&lt;/p&gt;&lt;hr size=&quot;1&quot;/&gt;&lt;p style=&quot;margin:0 0 0 4px;line-height:1.6;&quot;&gt;- nodes: List&amp;lt;NodeXml&amp;gt;&lt;br/&gt;- ways: List&amp;lt;WayXml&amp;gt;&lt;/p&gt;" style="verticalAlign=top;align=left;overflow=fill;fontSize=14;fontFamily=Helvetica;html=1;rounded=0;shadow=0;comic=0;labelBackgroundColor=none;strokeWidth=1;" parent="1" vertex="1">
          <mxGeometry x="-411.5" y="470" width="187" height="94" as="geometry" />
        </mxCell>
        <mxCell id="node1" value="&lt;p style=&quot;margin:0px;margin-top:4px;text-align:center;&quot;&gt;&lt;b&gt;TagXml&lt;/b&gt;&lt;/p&gt;&lt;hr size=&quot;1&quot;/&gt;&lt;p style=&quot;margin:0 0 0 4px;line-height:1.6;&quot;&gt;- key: String&lt;br/&gt;- value: String&lt;/p&gt;" style="verticalAlign=top;align=left;overflow=fill;fontSize=14;fontFamily=Helvetica;html=1;rounded=0;shadow=0;comic=0;labelBackgroundColor=none;strokeWidth=1;" parent="1" vertex="1">
          <mxGeometry x="-379" y="40" width="122" height="94" as="geometry" />
        </mxCell>
        <mxCell id="node4" value="&lt;p style=&quot;margin:0px;margin-top:4px;text-align:center;&quot;&gt;&lt;b&gt;WayXml&lt;/b&gt;&lt;/p&gt;&lt;hr size=&quot;1&quot;/&gt;&lt;p style=&quot;margin:0 0 0 4px;line-height:1.6;&quot;&gt;- id: Long&lt;br/&gt;- tags: List&amp;lt;TagXml&amp;gt;&lt;br/&gt;- nds: List&amp;lt;NdXml&amp;gt;&lt;/p&gt;" style="verticalAlign=top;align=left;overflow=fill;fontSize=14;fontFamily=Helvetica;html=1;rounded=0;shadow=0;comic=0;labelBackgroundColor=none;strokeWidth=1;" parent="1" vertex="1">
          <mxGeometry x="-400" y="260" width="164" height="120" as="geometry" />
        </mxCell>
        <mxCell id="edge2" value="" style="html=1;rounded=1;edgeStyle=orthogonalEdgeStyle;dashed=0;startArrow=diamondThinstartSize=12;endArrow=openThin;endSize=12;strokeColor=#595959;exitX=0.500;exitY=0.000;exitDx=0;exitDy=0;entryX=0.500;entryY=1.000;entryDx=0;entryDy=0;" parent="1" source="node4" target="node1" edge="1">
          <mxGeometry width="50" height="50" relative="1" as="geometry">
            <Array as="points" />
          </mxGeometry>
        </mxCell>
        <mxCell id="label12" value="1" style="edgeLabel;resizable=0;html=1;align=left;verticalAlign=top;strokeColor=default;" parent="edge2" vertex="1" connectable="0">
          <mxGeometry x="-310" y="240" as="geometry" />
        </mxCell>
        <mxCell id="Eb6dUa-JamSu1krB5h23-2" value="" style="html=1;rounded=1;edgeStyle=orthogonalEdgeStyle;dashed=0;startArrow=diamondThinstartSize=12;endArrow=openThin;endSize=12;strokeColor=#595959;exitX=0.5;exitY=0;exitDx=0;exitDy=0;" edge="1" parent="1" source="node4">
          <mxGeometry width="50" height="50" relative="1" as="geometry">
            <Array as="points" />
            <mxPoint x="-120" y="260" as="sourcePoint" />
            <mxPoint x="-160" y="110" as="targetPoint" />
          </mxGeometry>
        </mxCell>
        <mxCell id="Eb6dUa-JamSu1krB5h23-3" value="1" style="edgeLabel;resizable=0;html=1;align=left;verticalAlign=top;strokeColor=default;" vertex="1" connectable="0" parent="Eb6dUa-JamSu1krB5h23-2">
          <mxGeometry x="-330" y="240" as="geometry" />
        </mxCell>
        <mxCell id="Eb6dUa-JamSu1krB5h23-4" value="*" style="edgeLabel;resizable=0;html=1;align=left;verticalAlign=top;strokeColor=default;" vertex="1" connectable="0" parent="Eb6dUa-JamSu1krB5h23-2">
          <mxGeometry x="-330" y="130" as="geometry" />
        </mxCell>
        <mxCell id="Eb6dUa-JamSu1krB5h23-6" value="*" style="edgeLabel;resizable=0;html=1;align=left;verticalAlign=top;strokeColor=default;" vertex="1" connectable="0" parent="1">
          <mxGeometry x="-180" y="108" as="geometry" />
        </mxCell>
        <mxCell id="Eb6dUa-JamSu1krB5h23-7" value="" style="html=1;rounded=1;edgeStyle=orthogonalEdgeStyle;dashed=0;startArrow=diamondThinstartSize=12;endArrow=openThin;endSize=12;strokeColor=#595959;exitX=0.5;exitY=0;exitDx=0;exitDy=0;entryX=0.5;entryY=1;entryDx=0;entryDy=0;" edge="1" parent="1" source="node2" target="node3">
          <mxGeometry width="50" height="50" relative="1" as="geometry">
            <Array as="points" />
            <mxPoint x="-308" y="270" as="sourcePoint" />
            <mxPoint x="-150" y="120" as="targetPoint" />
          </mxGeometry>
        </mxCell>
        <mxCell id="Eb6dUa-JamSu1krB5h23-8" value="1" style="edgeLabel;resizable=0;html=1;align=left;verticalAlign=top;strokeColor=default;" vertex="1" connectable="0" parent="Eb6dUa-JamSu1krB5h23-7">
          <mxGeometry x="-330" y="240" as="geometry" />
        </mxCell>
        <mxCell id="Eb6dUa-JamSu1krB5h23-9" value="*" style="edgeLabel;resizable=0;html=1;align=left;verticalAlign=top;strokeColor=default;" vertex="1" connectable="0" parent="Eb6dUa-JamSu1krB5h23-7">
          <mxGeometry x="-330" y="130" as="geometry" />
        </mxCell>
        <mxCell id="Eb6dUa-JamSu1krB5h23-10" value="" style="html=1;rounded=1;edgeStyle=orthogonalEdgeStyle;dashed=0;startArrow=diamondThinstartSize=12;endArrow=openThin;endSize=12;strokeColor=#595959;exitX=0.5;exitY=0;exitDx=0;exitDy=0;" edge="1" parent="1" source="node2">
          <mxGeometry width="50" height="50" relative="1" as="geometry">
            <Array as="points" />
            <mxPoint x="-298" y="280" as="sourcePoint" />
            <mxPoint x="-318" y="380" as="targetPoint" />
          </mxGeometry>
        </mxCell>
        <mxCell id="Eb6dUa-JamSu1krB5h23-11" value="1" style="edgeLabel;resizable=0;html=1;align=left;verticalAlign=top;strokeColor=default;" vertex="1" connectable="0" parent="Eb6dUa-JamSu1krB5h23-10">
          <mxGeometry x="-330" y="240" as="geometry" />
        </mxCell>
        <mxCell id="Eb6dUa-JamSu1krB5h23-12" value="*" style="edgeLabel;resizable=0;html=1;align=left;verticalAlign=top;strokeColor=default;" vertex="1" connectable="0" parent="Eb6dUa-JamSu1krB5h23-10">
          <mxGeometry x="-330" y="130" as="geometry" />
        </mxCell>
        <mxCell id="Eb6dUa-JamSu1krB5h23-13" value="1" style="edgeLabel;resizable=0;html=1;align=left;verticalAlign=top;strokeColor=default;" vertex="1" connectable="0" parent="1">
          <mxGeometry x="-313" y="450" as="geometry" />
        </mxCell>
        <mxCell id="Eb6dUa-JamSu1krB5h23-15" value="1" style="edgeLabel;resizable=0;html=1;align=left;verticalAlign=top;strokeColor=default;" vertex="1" connectable="0" parent="1">
          <mxGeometry x="-333" y="450" as="geometry" />
        </mxCell>
        <mxCell id="Eb6dUa-JamSu1krB5h23-17" value="*" style="edgeLabel;resizable=0;html=1;align=left;verticalAlign=top;strokeColor=default;" vertex="1" connectable="0" parent="1">
          <mxGeometry x="-333" y="380" as="geometry" />
        </mxCell>
        <mxCell id="Eb6dUa-JamSu1krB5h23-18" value="*" style="edgeLabel;resizable=0;html=1;align=left;verticalAlign=top;strokeColor=default;" vertex="1" connectable="0" parent="1">
          <mxGeometry x="-159" y="380" as="geometry" />
        </mxCell>
      </root>
    </mxGraphModel>
  </diagram>
</mxfile>
